# xmcd CD database file
#
# Track frame offsets:
#	150
#	21893
#	45156
#	67949
#	88366
#	110149
#	129240
#	145927
#	166280
#	183924
#	204660
#	222304
#
# Disc length: 3175 seconds
#
# Revision: 15
# Processed by: cddbd v1.5.2PL0 Copyright (c) Steve Scherf et al.
# Submitted via: CDex 1.51
#
DISCID=a90c650c
DTITLE=Jonny Lang - Wander This World
DYEAR=1998
DGENRE=Blues
TTITLE0=Still Rainin'
TTITLE1=Second Guessing
TTITLE2=I Am
TTITLE3=Breakin' Me
TTITLE4=Wander This World
TTITLE5=Walking Away
TTITLE6=The Levee
TTITLE7=Angel Of Mercy
TTITLE8=Right Back
TTITLE9=Leaving To Stay
TTITLE10=Before You Hit The Ground
TTITLE11=Cherry Red Wine
EXTD=LABEL =A&M Records, Inc.\nID =3145409842\nUPC =731454-0984-27\nCOPYRIGHT =1998 YEAR: 1998
EXTT0=
EXTT1=
EXTT2=
EXTT3=
EXTT4=
EXTT5=
EXTT6=
EXTT7=
EXTT8=
EXTT9=
EXTT10=
EXTT11=
PLAYORDER=
